<svg width="20" height="18" viewBox="0 0 20 18" fill="none" xmlns="http://www.w3.org/2000/svg">
<path d="M2.312 11.272C2.312 12.52 1.992 14.264 1.992 15.624C1.992 17.192 2.968 17.992 4.376 17.992H5.304V16.728H4.648C3.848 16.728 3.416 16.392 3.416 15.528C3.416 14.312 3.72 12.552 3.72 11.224C3.72 10.136 3.208 9.304 1.992 9.032V9C3.208 8.744 3.72 7.912 3.72 6.824C3.72 5.496 3.416 3.736 3.416 2.52C3.416 1.656 3.848 1.32 4.648 1.32H5.304V0.0559998H4.376C2.968 0.0559998 1.992 0.855999 1.992 2.424C1.992 3.784 2.312 5.528 2.312 6.776C2.312 7.576 1.88 8.232 0.68 8.456V9.592C1.88 9.816 2.312 10.472 2.312 11.272ZM17.4706 11.272C17.4706 12.52 17.7906 14.264 17.7906 15.624C17.7906 17.192 16.8146 17.992 15.4066 17.992H14.4786V16.728H15.1346C15.9346 16.728 16.3666 16.392 16.3666 15.528C16.3666 14.312 16.0626 12.552 16.0626 11.224C16.0626 10.136 16.5746 9.304 17.7906 9.032V9C16.5746 8.744 16.0626 7.912 16.0626 6.824C16.0626 5.496 16.3666 3.736 16.3666 2.52C16.3666 1.656 15.9346 1.32 15.1346 1.32H14.4786V0.0559998H15.4066C16.8146 0.0559998 17.7906 0.855999 17.7906 2.424C17.7906 3.784 17.4706 5.528 17.4706 6.776C17.4706 7.576 17.9026 8.232 19.1026 8.456V9.592C17.9026 9.816 17.4706 10.472 17.4706 11.272Z" fill="white"/>
</svg>
