<svg width="12" height="21" viewBox="0 0 12 21" fill="none" xmlns="http://www.w3.org/2000/svg">
<path d="M8.95891 5.55319L0.954508 9.44068C0.177207 7.8295 0.857423 5.87923 2.45132 5.11807L10.4536 1.21656C9.79651 3.09732 9.79866 3.11133 8.95891 5.55319Z" fill="url(#paint0_linear)"/>
<path d="M2.4542 5.09844L10.4538 1.21662L9.65711 3.50668L0.634368 7.83278C0.707324 6.70033 1.36855 5.62941 2.4542 5.09844Z" fill="url(#paint1_linear)" fill-opacity="0.5"/>
<path d="M9.48392 15.8981L1.5264 19.7831C1.93473 15.6817 1.68507 18.6049 1.93473 15.6817L10.9778 11.5774C11.7524 13.1874 11.0762 15.1171 9.48392 15.8981Z" fill="url(#paint2_linear)"/>
<path d="M1.551 19.7866C1.6834 18.176 1.70607 18.0076 1.79673 17.3343L11.3443 12.7659C11.4285 14.0604 10.7434 15.3084 9.53005 15.9019L1.551 19.7866Z" fill="url(#paint3_linear)" fill-opacity="0.5"/>
<path d="M9.20446 9.90331L0.814778 6.93574C0.230222 8.61864 1.11237 10.4849 2.80202 11.08L11.1917 14.0476C11.7594 12.3423 10.8746 10.4957 9.20446 9.90331Z" fill="url(#paint4_linear)"/>
<path d="M0.634521 8.2738C0.746173 9.51204 1.54803 10.6455 2.78243 11.0773L11.1721 14.0449C11.3988 13.3948 11.4109 12.7149 11.2339 12.1091C11.0324 11.9809 10.8257 11.8921 10.5994 11.8006L0.634521 8.2738Z" fill="url(#paint5_linear)"/>
<defs>
<linearGradient id="paint0_linear" x1="0.904269" y1="7.93733" x2="10.4786" y2="2.7982" gradientUnits="userSpaceOnUse">
<stop stop-color="white"/>
<stop offset="1" stop-color="white" stop-opacity="0.4"/>
</linearGradient>
<linearGradient id="paint1_linear" x1="6.06747" y1="0.608308" x2="4.98194" y2="8.43572" gradientUnits="userSpaceOnUse">
<stop stop-color="white"/>
<stop offset="1" stop-color="white" stop-opacity="0"/>
</linearGradient>
<linearGradient id="paint2_linear" x1="10.9149" y1="13.4365" x2="1.158" y2="18.0303" gradientUnits="userSpaceOnUse">
<stop stop-color="white"/>
<stop offset="1" stop-color="white" stop-opacity="0.4"/>
</linearGradient>
<linearGradient id="paint3_linear" x1="6.76403" y1="12.1307" x2="5.62395" y2="20.3514" gradientUnits="userSpaceOnUse">
<stop stop-color="white"/>
<stop offset="1" stop-color="white" stop-opacity="0"/>
</linearGradient>
<linearGradient id="paint4_linear" x1="-0.270572" y1="8.13328" x2="11.5574" y2="12.4896" gradientUnits="userSpaceOnUse">
<stop stop-color="white" stop-opacity="0.8"/>
</linearGradient>
<linearGradient id="paint5_linear" x1="-0.395676" y1="8.69053" x2="13.6095" y2="14.0004" gradientUnits="userSpaceOnUse">
<stop stop-color="white"/>
<stop offset="1" stop-color="white"/>
</linearGradient>
</defs>
</svg>
