<svg width="37" height="60" viewBox="0 0 37 60" fill="none" xmlns="http://www.w3.org/2000/svg">
<path d="M27.4763 14.7426L32.301 0.364502L5.37373 13.5885C-2.31867 17.3662 -1.59239 28.4914 6.52676 31.2505L25.3319 37.6411L6.03292 46.694L4.42467 59.4746L30.8806 46.4789C38.7809 42.5981 37.7399 31.0934 29.2695 28.6744L10.3216 23.263L27.4763 14.7426Z" fill="#212121"/>
<path fill-rule="evenodd" clip-rule="evenodd" d="M32.301 0.364502L29.6206 8.35235L0.0205696 22.7962C-0.21229 19.1994 1.52942 15.4764 5.37373 13.5885L32.301 0.364502Z" fill="url(#paint0_linear)" fill-opacity="0.5"/>
<path fill-rule="evenodd" clip-rule="evenodd" d="M36.2341 37.2896L5.38459 51.8458L4.42462 59.4745L30.8806 46.4788C34.7369 44.5844 36.4628 40.8735 36.2341 37.2896Z" fill="url(#paint1_linear)"/>
<path fill-rule="evenodd" clip-rule="evenodd" d="M35.9139 35.3489L0.0228882 22.8325C0.268522 26.4198 2.47882 29.8748 6.52665 31.2504L25.3318 37.641L25.3075 37.6524L35.6893 41.1855C36.3636 39.3092 36.4287 37.2563 35.9139 35.3489Z" fill="url(#paint2_linear)"/>
<defs>
<linearGradient id="paint0_linear" x1="30.1567" y1="-2.83064" x2="-1.83246" y2="24.0052" gradientUnits="userSpaceOnUse">
<stop stop-color="white"/>
<stop offset="1" stop-color="white" stop-opacity="0"/>
</linearGradient>
<linearGradient id="paint1_linear" x1="14.0741" y1="55.7468" x2="37.0074" y2="37.4923" gradientUnits="userSpaceOnUse">
<stop stop-color="#2B2B2B"/>
<stop offset="1" stop-color="#808080"/>
</linearGradient>
<linearGradient id="paint2_linear" x1="-43.2868" y1="11.5473" x2="38.0835" y2="39.5707" gradientUnits="userSpaceOnUse">
<stop stop-color="#C0C0C0"/>
<stop offset="1" stop-color="#3A3A3A"/>
</linearGradient>
</defs>
</svg>
