<svg width="320" height="320" viewBox="0 0 320 320" fill="none" xmlns="http://www.w3.org/2000/svg">
<rect width="320" height="320" rx="50" fill="#12141C"/>
<path d="M195.212 94.2535L99.5844 140.019C90.2981 121.051 98.4246 98.0918 117.467 89.1311L213.069 43.2011C205.219 65.3421 205.245 65.507 195.212 94.2535Z" fill="url(#paint0_linear)"/>
<path d="M117.499 88.8995L213.069 43.2011L203.551 70.1607L95.7574 121.089C96.6289 107.758 104.529 95.1503 117.499 88.8995Z" fill="url(#paint1_linear)" fill-opacity="0.5"/>
<path d="M201.484 216.037L106.417 261.773C111.295 213.489 108.312 247.902 111.295 213.489L219.332 165.172C228.586 184.126 220.507 206.844 201.484 216.037Z" fill="url(#paint2_linear)"/>
<path d="M106.71 261.813C108.292 242.853 108.562 240.871 109.646 232.945L223.71 179.163C224.715 194.403 216.531 209.095 202.035 216.081L106.71 261.813Z" fill="url(#paint3_linear)" fill-opacity="0.5"/>
<path d="M198.144 145.464L97.9132 110.529C90.9295 130.341 101.468 152.311 121.655 159.317L221.885 194.252C228.667 174.177 218.097 152.438 198.144 145.464Z" fill="url(#paint4_linear)"/>
<path d="M95.7605 126.281C97.0944 140.858 106.674 154.202 121.421 159.285L221.652 194.221C224.361 186.568 224.504 178.564 222.391 171.432C219.983 169.923 217.513 168.877 214.81 167.8L95.7605 126.281Z" fill="url(#paint5_linear)"/>
<defs>
<linearGradient id="paint0_linear" x1="98.9842" y1="122.32" x2="212.609" y2="60.4272" gradientUnits="userSpaceOnUse">
<stop stop-color="#3300D2"/>
<stop offset="1" stop-color="#FF52FF"/>
</linearGradient>
<linearGradient id="paint1_linear" x1="160.666" y1="36.0399" x2="148.067" y2="128.238" gradientUnits="userSpaceOnUse">
<stop stop-color="white"/>
<stop offset="1" stop-color="white" stop-opacity="0"/>
</linearGradient>
<linearGradient id="paint2_linear" x1="218.58" y1="187.059" x2="102.644" y2="242.454" gradientUnits="userSpaceOnUse">
<stop stop-color="#3300D2"/>
<stop offset="1" stop-color="#FF52FF"/>
</linearGradient>
<linearGradient id="paint3_linear" x1="168.989" y1="171.685" x2="155.757" y2="268.516" gradientUnits="userSpaceOnUse">
<stop stop-color="white"/>
<stop offset="1" stop-color="white" stop-opacity="0"/>
</linearGradient>
<linearGradient id="paint4_linear" x1="84.9466" y1="124.627" x2="225.751" y2="177.255" gradientUnits="userSpaceOnUse">
<stop stop-color="#00E8D2"/>
<stop offset="0.3314" stop-color="#00ADD2"/>
<stop offset="0.4299" stop-color="#06A1D6"/>
<stop offset="0.6071" stop-color="#1682E1"/>
<stop offset="0.841" stop-color="#304FF2"/>
<stop offset="1" stop-color="#4429FF"/>
</linearGradient>
<linearGradient id="paint5_linear" x1="83.4528" y1="131.187" x2="250.146" y2="195.324" gradientUnits="userSpaceOnUse">
<stop stop-color="#00E8D2"/>
<stop offset="0.3314" stop-color="#00ADD2"/>
<stop offset="0.4299" stop-color="#06A1D6"/>
<stop offset="0.6071" stop-color="#1682E1"/>
<stop offset="0.841" stop-color="#304FF2"/>
<stop offset="1" stop-color="#4429FF"/>
</linearGradient>
</defs>
</svg>
